<svg width="21" height="25" viewBox="0 0 21 25" fill="none" xmlns="http://www.w3.org/2000/svg">
<path fill-rule="evenodd" clip-rule="evenodd" d="M5.48367 2.0022C8.41505 0.298952 12.0182 0.328723 14.9221 2.08018C17.7974 3.86732 19.5449 7.05683 19.5287 10.4878C19.4617 13.8964 17.5879 17.1004 15.2455 19.5772C13.8936 21.0132 12.3812 22.283 10.7393 23.3607C10.5702 23.4584 10.385 23.5239 10.1928 23.5538C10.0078 23.5459 9.82763 23.4913 9.66855 23.3947C7.16185 21.7755 4.96271 19.7086 3.17693 17.2935C1.68264 15.2775 0.833692 12.8419 0.745363 10.3174C0.743423 6.87982 2.55229 3.70545 5.48367 2.0022ZM7.17807 11.7402C7.67117 12.9559 8.83507 13.7488 10.1263 13.7488C10.9723 13.7549 11.7854 13.416 12.3847 12.8078C12.9839 12.1995 13.3194 11.3724 13.3164 10.5107C13.3209 9.19542 12.5465 8.00707 11.3549 7.50054C10.1632 6.994 8.78927 7.2692 7.87461 8.19764C6.95995 9.12607 6.68498 10.5246 7.17807 11.7402Z" fill="#00624B"/>
<path fill-rule="evenodd" clip-rule="evenodd" d="M5.10919 1.35774C8.27593 -0.482279 12.1702 -0.450035 15.307 1.44193L15.3155 1.44708L15.3155 1.44714C18.4143 3.37319 20.2914 6.80574 20.2739 10.4914L20.2739 10.5025L20.2738 10.5025C20.2018 14.1688 18.1962 17.5416 15.7876 20.0888C14.396 21.5668 12.839 22.8741 11.1483 23.9838L11.1307 23.9954L11.1124 24.0059C10.8639 24.1497 10.591 24.2462 10.3073 24.2903L10.2346 24.3016L10.161 24.2985C9.84992 24.2853 9.54775 24.1933 9.28185 24.032L9.26391 24.0211L9.26407 24.0209C6.68143 22.3526 4.41642 20.2235 2.5776 17.7367C0.993129 15.5987 0.094016 13.0175 0.000457372 10.3435L8.91878e-06 10.3307L1.67706e-06 10.3179C-0.00208549 6.61914 1.94413 3.19677 5.10919 1.35774ZM14.5328 2.71588C11.8626 1.10748 8.55268 1.08105 5.85813 2.64669C3.16407 4.21206 1.49344 7.13269 1.49075 10.3042C1.57627 12.6743 2.37452 14.9592 3.77575 16.8497L3.77626 16.8504C5.50634 19.1902 7.63571 21.1924 10.0618 22.7615C10.0929 22.7794 10.1259 22.7924 10.1599 22.8003C10.2259 22.783 10.29 22.7576 10.3506 22.7242C11.9356 21.6816 13.3963 20.4541 14.7028 19.0663L14.7039 19.0651C16.9783 16.66 18.7194 13.6272 18.7832 10.4788C18.7964 7.30619 17.1805 4.36363 14.5328 2.71588ZM11.0632 8.18653C10.1556 7.80074 9.10733 8.00842 8.40557 8.72075C7.70146 9.43547 7.48652 10.5177 7.86876 11.4601C8.2502 12.4004 9.14487 13.0034 10.1263 13.0034H10.1316V13.0035C10.774 13.0081 11.3943 12.7509 11.8536 12.2847C12.3134 11.818 12.5733 11.1804 12.5709 10.5133V10.5082C12.5745 9.48655 11.9732 8.57332 11.0632 8.18653ZM7.3436 7.67455C8.47115 6.53001 10.1707 6.1873 11.6464 6.81458C13.119 7.44052 14.0662 8.90276 14.0617 10.5107C14.0647 11.5661 13.6536 12.5817 12.9156 13.3309C12.1771 14.0805 11.1722 14.501 10.1237 14.4942C8.52369 14.4931 7.09177 13.5105 6.48734 12.0204C5.88339 10.5315 6.2184 8.8167 7.3436 7.67455Z" fill="white"/>
</svg>
